<mxfile host="app.diagrams.net" agent="Mozilla/5.0 (Windows NT 10.0; Win64; x64) AppleWebKit/537.36 (KHTML, like Gecko) Chrome/141.0.0.0 Safari/537.36" version="28.2.7">
  <diagram id="C5RBs43oDa-KdzZeNtuy" name="Page-1">
    <mxGraphModel dx="2066" dy="1081" grid="1" gridSize="10" guides="1" tooltips="1" connect="1" arrows="1" fold="1" page="1" pageScale="1" pageWidth="827" pageHeight="1169" math="0" shadow="0">
      <root>
        <mxCell id="WIyWlLk6GJQsqaUBKTNV-0" />
        <mxCell id="WIyWlLk6GJQsqaUBKTNV-1" parent="WIyWlLk6GJQsqaUBKTNV-0" />
        <mxCell id="FZotk91U7RSGwWFZPBbR-34" style="edgeStyle=orthogonalEdgeStyle;rounded=0;orthogonalLoop=1;jettySize=auto;html=1;exitX=0.5;exitY=1;exitDx=0;exitDy=0;entryX=0.5;entryY=0;entryDx=0;entryDy=0;" edge="1" parent="WIyWlLk6GJQsqaUBKTNV-1" source="WIyWlLk6GJQsqaUBKTNV-3" target="FZotk91U7RSGwWFZPBbR-0">
          <mxGeometry relative="1" as="geometry" />
        </mxCell>
        <mxCell id="WIyWlLk6GJQsqaUBKTNV-3" value="colocacion&amp;nbsp;&lt;div&gt;de tablero&lt;/div&gt;&lt;div&gt;(Random)&lt;/div&gt;" style="rounded=1;whiteSpace=wrap;html=1;fontSize=12;glass=0;strokeWidth=1;shadow=0;" parent="WIyWlLk6GJQsqaUBKTNV-1" vertex="1">
          <mxGeometry x="310" y="60" width="120" height="40" as="geometry" />
        </mxCell>
        <mxCell id="FZotk91U7RSGwWFZPBbR-1" style="edgeStyle=orthogonalEdgeStyle;rounded=0;orthogonalLoop=1;jettySize=auto;html=1;" edge="1" parent="WIyWlLk6GJQsqaUBKTNV-1" source="FZotk91U7RSGwWFZPBbR-0" target="FZotk91U7RSGwWFZPBbR-52">
          <mxGeometry relative="1" as="geometry">
            <mxPoint x="350" y="680" as="targetPoint" />
            <Array as="points">
              <mxPoint x="350" y="620" />
              <mxPoint x="350" y="620" />
            </Array>
          </mxGeometry>
        </mxCell>
        <mxCell id="FZotk91U7RSGwWFZPBbR-0" value="&lt;br&gt;&lt;div&gt;1 BARCO&amp;nbsp; - 5&amp;nbsp; VIDAS&lt;br&gt;1 BARCO - 4 VIDAS&lt;/div&gt;&lt;div&gt;2 BARCOS&amp;nbsp; 3- VIDAS&lt;/div&gt;&lt;div&gt;1 BARCO- 2 VIDAS&amp;nbsp;&lt;/div&gt;" style="rounded=0;whiteSpace=wrap;html=1;" vertex="1" parent="WIyWlLk6GJQsqaUBKTNV-1">
          <mxGeometry x="290" y="240" width="160" height="350" as="geometry" />
        </mxCell>
        <mxCell id="FZotk91U7RSGwWFZPBbR-54" style="edgeStyle=orthogonalEdgeStyle;rounded=0;orthogonalLoop=1;jettySize=auto;html=1;exitX=1;exitY=0.5;exitDx=0;exitDy=0;" edge="1" parent="WIyWlLk6GJQsqaUBKTNV-1" source="FZotk91U7RSGwWFZPBbR-9" target="FZotk91U7RSGwWFZPBbR-43">
          <mxGeometry relative="1" as="geometry" />
        </mxCell>
        <mxCell id="FZotk91U7RSGwWFZPBbR-9" value="AGUA?" style="rhombus;whiteSpace=wrap;html=1;" vertex="1" parent="WIyWlLk6GJQsqaUBKTNV-1">
          <mxGeometry x="310" y="835" width="100" height="95" as="geometry" />
        </mxCell>
        <mxCell id="FZotk91U7RSGwWFZPBbR-11" value="NO" style="text;html=1;whiteSpace=wrap;strokeColor=none;fillColor=none;align=center;verticalAlign=middle;rounded=0;" vertex="1" parent="WIyWlLk6GJQsqaUBKTNV-1">
          <mxGeometry x="540" y="780" width="60" height="30" as="geometry" />
        </mxCell>
        <mxCell id="FZotk91U7RSGwWFZPBbR-56" style="edgeStyle=orthogonalEdgeStyle;rounded=0;orthogonalLoop=1;jettySize=auto;html=1;exitX=1;exitY=0.5;exitDx=0;exitDy=0;" edge="1" parent="WIyWlLk6GJQsqaUBKTNV-1" source="FZotk91U7RSGwWFZPBbR-13">
          <mxGeometry relative="1" as="geometry">
            <mxPoint x="1280" y="738" as="targetPoint" />
          </mxGeometry>
        </mxCell>
        <mxCell id="FZotk91U7RSGwWFZPBbR-13" value="HUNDIDO" style="rounded=1;whiteSpace=wrap;html=1;" vertex="1" parent="WIyWlLk6GJQsqaUBKTNV-1">
          <mxGeometry x="1060" y="707.5" width="120" height="60" as="geometry" />
        </mxCell>
        <mxCell id="FZotk91U7RSGwWFZPBbR-18" value="SI" style="text;html=1;whiteSpace=wrap;strokeColor=none;fillColor=none;align=center;verticalAlign=middle;rounded=0;" vertex="1" parent="WIyWlLk6GJQsqaUBKTNV-1">
          <mxGeometry x="354" y="970" width="60" height="30" as="geometry" />
        </mxCell>
        <mxCell id="FZotk91U7RSGwWFZPBbR-24" value="JUEGO MADRE&amp;nbsp;&lt;div&gt;DEL&lt;/div&gt;&lt;div&gt;EMIGRANTE&amp;nbsp;&lt;/div&gt;" style="ellipse;whiteSpace=wrap;html=1;" vertex="1" parent="WIyWlLk6GJQsqaUBKTNV-1">
          <mxGeometry x="440" y="10" width="120" height="80" as="geometry" />
        </mxCell>
        <mxCell id="FZotk91U7RSGwWFZPBbR-32" value="CADA UNOP&amp;nbsp;&lt;div&gt;TIENE 5&amp;nbsp;&lt;/div&gt;&lt;div&gt;BARCOS (5,4,3,3,2)&amp;nbsp;&lt;/div&gt;" style="shape=callout;whiteSpace=wrap;html=1;perimeter=calloutPerimeter;" vertex="1" parent="WIyWlLk6GJQsqaUBKTNV-1">
          <mxGeometry x="540" y="80" width="170" height="90" as="geometry" />
        </mxCell>
        <mxCell id="FZotk91U7RSGwWFZPBbR-38" style="edgeStyle=orthogonalEdgeStyle;rounded=0;orthogonalLoop=1;jettySize=auto;html=1;exitX=1;exitY=0.5;exitDx=0;exitDy=0;entryX=0;entryY=0.5;entryDx=0;entryDy=0;" edge="1" parent="WIyWlLk6GJQsqaUBKTNV-1" source="FZotk91U7RSGwWFZPBbR-35" target="FZotk91U7RSGwWFZPBbR-13">
          <mxGeometry relative="1" as="geometry" />
        </mxCell>
        <mxCell id="FZotk91U7RSGwWFZPBbR-39" value="SI" style="edgeLabel;html=1;align=center;verticalAlign=middle;resizable=0;points=[];" vertex="1" connectable="0" parent="FZotk91U7RSGwWFZPBbR-38">
          <mxGeometry x="-0.0488" relative="1" as="geometry">
            <mxPoint as="offset" />
          </mxGeometry>
        </mxCell>
        <mxCell id="FZotk91U7RSGwWFZPBbR-45" style="edgeStyle=orthogonalEdgeStyle;rounded=0;orthogonalLoop=1;jettySize=auto;html=1;exitX=0.5;exitY=1;exitDx=0;exitDy=0;" edge="1" parent="WIyWlLk6GJQsqaUBKTNV-1" source="FZotk91U7RSGwWFZPBbR-35">
          <mxGeometry relative="1" as="geometry">
            <mxPoint x="910" y="870" as="targetPoint" />
          </mxGeometry>
        </mxCell>
        <mxCell id="FZotk91U7RSGwWFZPBbR-47" value="NO" style="edgeLabel;html=1;align=center;verticalAlign=middle;resizable=0;points=[];" vertex="1" connectable="0" parent="FZotk91U7RSGwWFZPBbR-45">
          <mxGeometry x="-0.1417" y="-3" relative="1" as="geometry">
            <mxPoint as="offset" />
          </mxGeometry>
        </mxCell>
        <mxCell id="FZotk91U7RSGwWFZPBbR-35" value="ULTIMA&amp;nbsp; VIDA?" style="rhombus;whiteSpace=wrap;html=1;" vertex="1" parent="WIyWlLk6GJQsqaUBKTNV-1">
          <mxGeometry x="840" y="687.5" width="140" height="102.5" as="geometry" />
        </mxCell>
        <mxCell id="FZotk91U7RSGwWFZPBbR-44" style="edgeStyle=orthogonalEdgeStyle;rounded=0;orthogonalLoop=1;jettySize=auto;html=1;exitX=1;exitY=0.5;exitDx=0;exitDy=0;entryX=0;entryY=0.5;entryDx=0;entryDy=0;" edge="1" parent="WIyWlLk6GJQsqaUBKTNV-1" source="FZotk91U7RSGwWFZPBbR-43" target="FZotk91U7RSGwWFZPBbR-35">
          <mxGeometry relative="1" as="geometry" />
        </mxCell>
        <mxCell id="FZotk91U7RSGwWFZPBbR-43" value="numero de vidas BARCO -1" style="rounded=0;whiteSpace=wrap;html=1;" vertex="1" parent="WIyWlLk6GJQsqaUBKTNV-1">
          <mxGeometry x="630" y="790" width="140" height="60" as="geometry" />
        </mxCell>
        <mxCell id="FZotk91U7RSGwWFZPBbR-55" style="edgeStyle=orthogonalEdgeStyle;rounded=0;orthogonalLoop=1;jettySize=auto;html=1;exitX=0.5;exitY=1;exitDx=0;exitDy=0;" edge="1" parent="WIyWlLk6GJQsqaUBKTNV-1" source="FZotk91U7RSGwWFZPBbR-46">
          <mxGeometry relative="1" as="geometry">
            <mxPoint x="910" y="1120" as="targetPoint" />
          </mxGeometry>
        </mxCell>
        <mxCell id="FZotk91U7RSGwWFZPBbR-46" value="TOCADO" style="rounded=0;whiteSpace=wrap;html=1;" vertex="1" parent="WIyWlLk6GJQsqaUBKTNV-1">
          <mxGeometry x="850" y="870" width="120" height="60" as="geometry" />
        </mxCell>
        <mxCell id="FZotk91U7RSGwWFZPBbR-51" style="edgeStyle=orthogonalEdgeStyle;rounded=0;orthogonalLoop=1;jettySize=auto;html=1;exitX=0.5;exitY=1;exitDx=0;exitDy=0;" edge="1" parent="WIyWlLk6GJQsqaUBKTNV-1" source="FZotk91U7RSGwWFZPBbR-9">
          <mxGeometry relative="1" as="geometry">
            <mxPoint x="350" y="650" as="targetPoint" />
            <Array as="points">
              <mxPoint x="350" y="1120" />
              <mxPoint x="1280" y="1120" />
              <mxPoint x="1280" y="627" />
            </Array>
          </mxGeometry>
        </mxCell>
        <mxCell id="FZotk91U7RSGwWFZPBbR-53" style="edgeStyle=orthogonalEdgeStyle;rounded=0;orthogonalLoop=1;jettySize=auto;html=1;exitX=0.5;exitY=1;exitDx=0;exitDy=0;entryX=0.5;entryY=0;entryDx=0;entryDy=0;" edge="1" parent="WIyWlLk6GJQsqaUBKTNV-1" source="FZotk91U7RSGwWFZPBbR-52" target="FZotk91U7RSGwWFZPBbR-9">
          <mxGeometry relative="1" as="geometry" />
        </mxCell>
        <mxCell id="FZotk91U7RSGwWFZPBbR-52" value="ATAQUE USUARIO / ATAQUE BOT" style="rounded=0;whiteSpace=wrap;html=1;" vertex="1" parent="WIyWlLk6GJQsqaUBKTNV-1">
          <mxGeometry x="290" y="730" width="210" height="60" as="geometry" />
        </mxCell>
      </root>
    </mxGraphModel>
  </diagram>
</mxfile>
